<?xml version="1.0" encoding="UTF-8"?>
<svg xmlns="http://www.w3.org/2000/svg" xmlns:xlink="http://www.w3.org/1999/xlink" width="32pt" height="32pt" viewBox="0 0 32 32" version="1.1">
<g id="surface1">
<path style=" stroke:none;fill-rule:nonzero;fill:rgb(0%,0%,0%);fill-opacity:1;" d="M 12.539062 1.609375 L 10.417969 2.824219 L 12.558594 4.074219 L 14.691406 2.851562 Z M 12.648438 26.410156 L 14.71875 27.605469 L 14.71875 5.535156 L 12.648438 4.328125 Z M 12.855469 7.382812 L 14.511719 8.347656 L 14.511719 10.679688 L 12.855469 9.726562 Z M 12.855469 21.289062 L 14.511719 22.253906 L 14.511719 24.601562 L 12.855469 23.636719 Z M 10.320312 25.0625 L 12.457031 26.300781 L 12.457031 4.214844 L 10.320312 2.96875 Z M 14.882812 2.960938 L 12.75 4.183594 L 14.796875 5.378906 L 16.90625 4.125 Z M 19.621094 8.300781 L 19.621094 30.371094 L 21.761719 29.097656 L 21.761719 7.082031 Z M 17.183594 29.03125 L 19.457031 30.347656 L 19.472656 8.3125 L 17.183594 6.976562 Z M 17.09375 4.234375 L 14.988281 5.488281 L 17.074219 6.703125 L 19.199219 5.449219 Z M 14.910156 27.714844 L 16.992188 28.921875 L 16.992188 6.863281 L 14.910156 5.648438 Z M 15.117188 8.699219 L 16.785156 9.675781 L 16.785156 11.992188 L 15.117188 11.027344 Z M 15.117188 22.605469 L 16.785156 23.582031 L 16.785156 25.933594 L 15.117188 24.957031 Z M 19.390625 5.558594 L 17.265625 6.8125 L 19.5625 8.152344 L 21.734375 6.910156 Z M 19.390625 5.558594 "/>
</g>
</svg>
